<?xml version="1.0" encoding="UTF-8"?>
<svg width="1e3" height="760" version="1.1" viewBox="0 0 1e3 760" xmlns="http://www.w3.org/2000/svg">
 <defs>
  <clipPath id="_clip1-1">
   <ellipse cx="1698" cy="554.5" rx="243.7" ry="53.18"/>
  </clipPath>
  <clipPath id="_clip2-7">
   <path d="m1748 595c2.9-17.45 10.74-38.69 23.31-61.88 26.46-48.85 75.07-112.1 98.88-173.4 6.88-17.62 12.61-38.16 10.32-56.68-1.4-11.39-5.86-22.23-18.69-27.24-21-7.562-31.91-30.75-24.34-51.74 7.56-21 30.74-31.9 51.74-24.34 37.6 12.41 58.54 37.94 69.61 68.01 13.55 36.75 8.28 83.5-4.54 122.3-5.76 17.42-13.23 35.03-21.55 52.6-18.34 38.73-41.43 76.96-59.82 110.7-9.77 17.93-18.56 33.75-22.38 46.9 22.69-2.025 38.99-3.256 51.9-3.792 14.8-0.614 24.23-0.067 34.49-1.731 13.83-2.245 28.78-6.394 58.43-16.45 9.79-3.177 37.62-15.81 55.1-41.61 12.3-18.16 20.57-41.3 15.04-71.33-1.44-4.709 1.21-9.703 5.92-11.14s9.71 1.213 11.15 5.922c15.75 36.07 11.37 67.64 1.1 93.99-10.29 26.37-28.38 46.4-43.59 59.51 17.93-1.726 34.77-2.321 45.54-0.901 19.84 2.616 32.42 11.76 39.32 18.99 11.38 11.92 18.52 24.91 19.02 63.23 0.66 52-16.85 95.2-187.1 112.5-32.25 3.285-96.52-1.278-124.4-10.76-16.42-5.586-32.63-14.41-46.57-28.01-30.13-5.652-73.58-22.36-93.82-47.24-19.04-23.4-26.5-51.25-9.61-82.96 13.24-24.84 27.83-35.36 44.09-40.22 6.46-1.928 13.48-3.07 21.41-3.205z"/>
  </clipPath>
  <clipPath id="_clip3-4">
   <path d="m1628 466.6c-0.39 1.475-4.26 8.606-5.97 10.24-1.15 1.094-6.61 5.521-7.6 5.975-5.16 2.357-10.99 2.825-16.56 2.041-3.05-0.429-6.04-1.226-8.92-2.308-2.13-0.801-4.2-1.76-6.2-2.859-1.52-0.84-3-1.763-4.42-2.762-1.16-0.808-2.27-1.667-3.35-2.575-0.9-0.761-1.77-1.556-2.6-2.386-4.46-4.42-8.06-9.919-9.48-16.1-0.29-1.262-0.49-2.546-0.6-3.837-0.1-1.265-0.11-2.538-0.04-3.805 0.05-0.924 0.15-1.845 0.3-2.76 1.06-6.821 4.45-13.09 8.71-18.44 0.79-0.995 1.62-1.963 2.47-2.904 1.11-1.218 2.27-2.391 3.47-3.52 1.53-1.44 3.12-2.809 4.78-4.104 2.11-1.655 4.32-3.191 6.6-4.597 2.99-1.835 6.11-3.455 9.37-4.759 1.23-0.496 2.49-0.945 3.77-1.316 1.02-0.297 2.06-0.549 3.11-0.754 5.72-1.118 11.88-0.862 17.23 1.592 1.11 0.506 2.16 1.107 3.17 1.786 1.17 0.788 2.29 1.661 3.29 2.651 0.53 0.519 1.03 1.074 1.44 1.689 0.21 0.316 3.58-3.035 3.94-3.393 4.22-4.224 13.79-5.772 17.82-0.405 9.71 12.95-12.54 17.06-10.94 21.87 2.89 8.653 18.16 19.43 25.54 23.12 2.88 1.441 19.97 8.692 19.25 11.55-1.48 5.927-21.61 12.26-29.4 10.7-7.38-1.476-14.5-5.72-21.46-8.506-0.72-0.285-5.11-1.738-6.71-1.155z"/>
  </clipPath>
  <clipPath id="_clip4-0">
   <path d="m1628 466.6c-0.39 1.475-4.26 8.606-5.97 10.24-1.15 1.094-6.61 5.521-7.6 5.975-5.16 2.357-10.99 2.825-16.56 2.041-3.05-0.429-6.04-1.226-8.92-2.308-2.13-0.801-4.2-1.76-6.2-2.859-1.52-0.84-3-1.763-4.42-2.762-1.16-0.808-2.27-1.667-3.35-2.575-0.9-0.761-1.77-1.556-2.6-2.386-4.46-4.42-8.06-9.919-9.48-16.1-0.29-1.262-0.49-2.546-0.6-3.837-0.1-1.265-0.11-2.538-0.04-3.805 0.05-0.924 0.15-1.845 0.3-2.76 1.06-6.821 4.45-13.09 8.71-18.44 0.79-0.995 1.62-1.963 2.47-2.904 1.11-1.218 2.27-2.391 3.47-3.52 1.53-1.44 3.12-2.809 4.78-4.104 2.11-1.655 4.32-3.191 6.6-4.597 2.99-1.835 6.11-3.455 9.37-4.759 1.23-0.496 2.49-0.945 3.77-1.316 1.02-0.297 2.06-0.549 3.11-0.754 5.72-1.118 11.88-0.862 17.23 1.592 1.11 0.506 2.16 1.107 3.17 1.786 1.17 0.788 2.29 1.661 3.29 2.651 0.53 0.519 1.03 1.074 1.44 1.689 0.21 0.316 3.58-3.035 3.94-3.393 4.22-4.224 13.79-5.772 17.82-0.405 9.71 12.95-12.54 17.06-10.94 21.87 2.89 8.653 18.16 19.43 25.54 23.12 2.88 1.441 19.97 8.692 19.25 11.55-1.48 5.927-21.61 12.26-29.4 10.7-7.38-1.476-14.5-5.72-21.46-8.506-0.72-0.285-5.11-1.738-6.71-1.155z"/>
  </clipPath>
  <clipPath id="_clip5-2">
   <path d="m1844 120.4c-4.31-1.464-10.22-3.075-17.36-2.908-6.12 0.143-11.53 2.118-16.93 5.2-2.24 1.284-4.76 2.28-6.69 4.054-6.75 6.188-11.54 16.25-11.99 25.12-0.7 13.63 0.21 19.97 1.48 23.52 0.42 1.177 3.01 4.065 4.07 4.772 1.41 0.941 5.38 1.127 6.84 0.862 5.7-1.038 7.85-2.594 15.81-5.18 17.2-5.589 23.68-10.87 33.76-23 4.65-5.602 17.22-6.162 15.93-10.09-2.48-7.523-12.06-17.97-24.92-22.34z"/>
  </clipPath>
  <clipPath id="_clip6-8">
   <ellipse cx="1802" cy="131.7" rx="10.87" ry="10.93"/>
  </clipPath>
  <clipPath id="_clip7-0">
   <ellipse cx="1878" cy="113.2" rx="1.97" ry="8.037"/>
  </clipPath>
  <clipPath id="_clip8-3">
   <ellipse cx="1802" cy="131.7" rx="10.87" ry="10.93"/>
  </clipPath>
  <clipPath id="_clip9-7">
   <ellipse cx="1878" cy="113.2" rx="1.97" ry="8.037"/>
  </clipPath>
  <clipPath id="_clip2">
   <path d="m284.6 372h-40.29l2.689 28.16h34.48z"/>
  </clipPath>
 </defs>
 <g transform="matrix(1.038 0 0 1.014 -19.55 114.7)" clip-rule="evenodd" fill-rule="evenodd">
  <g transform="matrix(-1.818 0 0 1.165 3588 -110.6)" stroke-linecap="square" stroke-miterlimit="1.5">
   <ellipse cx="1698" cy="554.5" rx="243.7" ry="53.18" fill="#f5f1e5"/>
   <clipPath>
    <ellipse cx="1698" cy="554.5" rx="243.7" ry="53.18"/>
   </clipPath>
   <g clip-path="url(#_clip1-1)">
    <g transform="matrix(1.147 .09719 -.03449 .992 -317.5 -374.1)">
     <ellipse cx="1843" cy="723" rx="122.7" ry="52.13" fill="#dedcc5"/>
    </g>
    <g transform="matrix(.9338 0 0 .7488 -123.8 -.5986)">
     <ellipse cx="1843" cy="723" rx="122.7" ry="52.13" fill="#dedcc5"/>
    </g>
    <g transform="matrix(-.5602 0 0 1.225 2637 -460.7)">
     <path d="m1918 832.1-447.1 1.363 48.58 38.69 464.7 2.379z" fill="#dedcc5"/>
    </g>
   </g>
  </g>
  <g transform="matrix(2.447 0 0 2.717 -284.3 -920.8)" stroke-linejoin="round" stroke-miterlimit="2">
   <g transform="translate(-33.96 97.82)">
    <g transform="translate(2.328 -.7609)">
     <path d="m256.5 320.1c-0.14-1.096 0.07-2.245 0.674-3.27 1.17-1.989 2.814-2.444 4.073-2.54 1.066-0.081 4.06-0.129 5.3 3.493 0.028 0.084 0.231 0.698 0.307 1.783 0.192 2.74 0.898 16.9 1.107 18.14 0.475 2.821-1.43 5.497-4.251 5.972-2.821 0.474-5.496-1.431-5.971-4.251-0.221-1.313-1.023-16.25-1.225-19.14z" fill="#006837"/>
    </g>
    <path d="m278.4 295.5c-0.063-0.753 0.37-1.489 1.11-1.776 0.9-0.35 1.915 0.096 2.265 0.996 0.107 0.274 0.197 0.79 0.062 1.454-0.171 0.844-0.83 2.44-0.904 2.887-0.568 3.407-1.366 6.637-2.138 9.985-1.158 5.018-3.023 10.15-3.491 15.29-0.435 4.784-0.463 9.496-0.463 14.19 0 0.966-0.784 1.75-1.75 1.75s-1.75-0.784-1.75-1.75c0-4.798 0.033-9.615 0.477-14.51 0.482-5.298 2.373-10.59 3.566-15.76 0.757-3.277 1.54-6.439 2.096-9.773 0.051-0.302 0.303-1.047 0.566-1.816 0.137-0.401 0.305-0.993 0.354-1.17z" fill="#006837"/>
   </g>
   <g transform="translate(-33.96 97.82)">
    <g transform="matrix(3.221 0 0 .4481 -585.6 170.3)">
     <rect x="247" y="372" width="34.48" height="28.16" fill="#12505f"/>
    </g>
    <g transform="matrix(1.338 0 0 .4689 -326.1 199.9)">
     <ellipse cx="445" cy="476.9" rx="34.5" ry="16.66" fill="#21363b"/>
    </g>
    <g transform="matrix(2.454 0 0 2.597 -382.9 -616.4)">
     <path d="m284.6 372h-40.29l2.689 28.16h34.48z" fill="#21363b"/>
     <clipPath>
      <path d="m284.6 372h-40.29l2.689 28.16h34.48z"/>
     </clipPath>
     <g clip-path="url(#_clip2)">
      <g transform="matrix(.8791 0 0 .2032 -61.09 245.5)">
       <rect x="347.4" y="587.3" width="45.83" height="52.3" fill="#1f2f33"/>
      </g>
     </g>
    </g>
    <g transform="matrix(1.397 0 0 .2293 -276 215.6)">
     <ellipse cx="387.8" cy="584.9" rx="39.96" ry="20.84" fill="#12505f"/>
    </g>
   </g>
   <g transform="translate(-33.96 97.82)">
    <path d="m285.2 253c-0.985 0.85-1.715 2.101-2.302 3.52-0.683 1.648-1.169 3.55-1.99 4.957-2.692 4.615-4.244 8.972-6.017 13.94-0.324 0.909 0.15 1.911 1.06 2.236 0.909 0.325 1.912-0.15 2.236-1.059 1.698-4.753 3.167-8.931 5.744-13.35 0.761-1.303 1.291-2.978 1.88-4.562 0.443-1.191 0.881-2.343 1.677-3.03 0.731-0.632 0.812-1.738 0.181-2.469-0.632-0.731-1.738-0.812-2.469-0.18z" fill="#009244"/>
    <path d="m258.6 260.7c-0.014-0.061-0.025-0.124-0.032-0.187-0.113-0.959 0.575-1.829 1.534-1.942 0.503-0.058 1.578 0.012 1.921 1.336 0.059 0.228 0.071 1.544 0.072 1.792 0.126 1.101 0.366 2.264 0.65 3.329 1.431 5.364 0.82 11.02 1.907 16.46 0.19 0.947-0.426 1.87-1.373 2.059-0.947 0.19-1.869-0.425-2.059-1.372-1.072-5.364-0.445-10.95-1.856-16.24-0.333-1.249-0.611-2.615-0.754-3.903-0.013-0.111-0.011-1.021-0.01-1.327zm0.527 0.902c0.424 0.409 0.913 0.501 1.382 0.446-0.523 0.061-1.021-0.116-1.382-0.446z" fill="#006837"/>
    <path d="m236.3 273.6c-0.793-0.432-1.133-1.409-0.76-2.248 0.308-0.691 0.783-0.937 1.159-1.055 0.42-0.132 0.87-0.126 1.337 0.094 0.216 0.102 0.485 0.283 0.732 0.589 0.135 0.166 0.437 0.656 0.553 0.845 1.449 0.927 2.468 2.212 3.494 3.649 2.839 3.975 5.692 7.564 7.501 12.27 0.368 0.955 0.682 2.393 1.081 3.775 0.292 1.014 0.576 2.019 1.111 2.554 0.683 0.683 0.683 1.792 0 2.475s-1.792 0.683-2.475 0c-0.722-0.722-1.303-1.887-1.739-3.21-0.499-1.516-0.828-3.256-1.245-4.338-1.697-4.415-4.417-7.759-7.082-11.49-0.785-1.099-1.512-2.126-2.651-2.81-0.239-0.143-0.496-0.368-0.726-0.667-0.082-0.108-0.191-0.274-0.29-0.432zm2.375-0.699-5e-3 0.01zm0.028-0.052c0.012-0.023 0.023-0.047 0.034-0.073z" fill="#009244"/>
    <path d="m262.7 277.9c0.871 0.284-2.912-0.604-6.329-1.175-1.448-0.242-3.504-0.405-5.055-0.405-3.292 0-7.069 2.73-9.495 4.809-4.396 3.768-6.639 8.895-8.262 14.3-1.129 3.764-2.959 7.277-2.959 11.34 0 1.992-0.285 3.804 0 5.796 0.051 0.355-0.257 1.84 0 2.096 0.288 0.289 0.914-0.766 0.986-0.863 0.254-0.338 2.341-3.576 2.59-3.576 0.182 0-0.465 3.257-0.493 3.453-0.523 3.655-1.374 7.546-1.603 11.22-0.498 7.956 2.456 14.28 5.918 21.21 0.932 1.863 1.754 5.453 3.207 6.905 0.147 0.148 0.36-0.947 0.369-0.986 0.181-0.722 0.407-1.307 0.74-1.973 0.893-1.785 1.47-3.791 2.097-5.672 2.155-6.466 3.452-12.73 3.452-19.61 0-6.456-1.016-12.85-1.726-19.24-0.573-5.16 1.238-12.06 2.589-17.02 0.77-2.822 2.545-5.011 4.563-7.029 0.562-0.562 9.411-3.599 9.411-3.599z" fill="#006837"/>
    <path d="m267.7 286.2c-0.153-0.04 2.387-0.872 2.929-0.872 2.443 0 4.352 0.095 6.658 0.864 2.445 0.815 4.559 3.325 6.289 5.055 0.219 0.219 1.126 2.705 1.356 2.59 1.241-0.62 2.223-3.664 2.713-4.809 1.004-2.342 0.567-4.781-0.37-7.029-3.289-7.895-10.47-13.1-19.48-10.85-4.077 1.019-7.38 2.942-10.23 5.795-2.592 2.592-6.004 4.733-7.769 8.262-4.46 8.92-4.492 19.02-5.302 28.73-0.463 5.561-0.258 11.09 0.247 16.65 0.475 5.229-0.184 11.03-1.85 16.03-0.574 1.723-1.023 3.403-1.85 5.056-0.396 0.792-0.986 2.466-0.986 2.466s1.306-1.762 1.849-2.713c1.209-2.114 2.28-4.424 3.7-6.412 1.708-2.391 3.317-5.384 5.302-7.522 2.806-3.021 6.848-6.093 10.11-8.631 1.917-1.491 4.123-2.793 6.166-4.069 1.983-1.24 4.224-1.791 4.686-4.563 0.608-3.648-2.654-5.801-4.07-8.632-0.324-0.648-0.938-2.293-0.123-2.836 1.077-0.718 3.416 1.821 4.069 2.343 2.517 2.014 3.203 3.827 6.042 0.987 0.396-0.395 0.889-0.791 1.234-1.233 0.753-0.968 1.366-1.956 1.849-3.083 1.036-2.417 3.757-6.799 3.083-9.495-0.543-2.174-3.157-5.146-5.056-6.412-2.36-1.574-5.738-4.05-8.385-4.932-0.451-0.151-2.272 0.194-2.589-0.124-0.224-0.223-1.373-1.356-0.124-1.356" fill="#3ab549"/>
    <path d="m334.1 273.1c0-1.699-0.703-4.971-1.152-6.618-1.344-4.929-3.048-9.678-5.549-14.18-1.166-2.099-2.812-4.079-4.193-5.919-0.2-0.267-2.324-2.907-2.219-2.96 0.743-0.371 3.259 1.556 3.946 1.85 0.147 0.063 1.313 0.906 1.479 0.74 0.412-0.412-0.439-1.865-0.616-2.22-1.095-2.191-2.841-4.261-4.193-6.289-4.771-7.157-10.09-12.26-18.5-14.55-2.026-0.553-4.618-1.173-6.782-0.74-2.901 0.58-3.308 2.437-1.233 4.809 2.737 3.128 6.988 4.614 9.495 7.892 5.039 6.589 6.5 16.35 8.631 24.17 0.332 1.217 1.194 2.174 1.85 3.206 2.749 4.32 6.498 7.146 10.24 10.85 1.902 1.886 6.608 4.325 8.797 6.441" fill="#009244"/>
    <path d="m298.9 227.2c-1.165-0.582-4.958-3.342-5.672-3.699-2.363-1.182-5.522-2.582-8.262-1.973-6.127 1.362-14.6 7.055-15.29 13.93-0.265 2.649-0.065 10.4 4.439 9.495 1.159-0.232 1.722-1.422 2.59-2.096 2.187-1.701 4.221-3.48 6.658-4.809 1.324-0.722 2.383-1.617 3.823-2.097 0.495-0.165 0.985-0.328 1.48-0.493 0.16-0.053 0.662-0.123 0.493-0.123-1.695 0-2.954 1.983-4.069 2.959-3.075 2.691-10.15 8.076-7.029 13.07 1.893 3.028 5.675 5.757 8.385 8.015 0.885 0.738 1.882 1.991 3.206 1.726 1.441-0.288 4.241-3.73 5.303-4.685 0.623-0.561 1.152-1.015 1.849-1.48 0.413-0.275 1.579-1.061 1.357-0.617-1.915 3.829-5.735 11.44-0.37 14.8 0.931 0.582 2.279 1.041 3.329 1.356 2.43 0.729 5.363 0.189 7.892 0.37 6.008 0.429 11.65 3.818 17.42 5.549 2.239 0.672 7.862 3.516 7.652 3.213-0.447-0.644-1.945-1.868-3.542-2.783-2.858-1.637-4.148-2.928-6.73-5.486-4.628-4.585-7.321-10.33-10.24-16.15-2.855-5.711-3.163-12.46-5.795-18.25-1.714-3.771-5.101-7.853-8.879-9.742z" fill="#3ab549"/>
    <path d="m221.3 260.2c0.201-2.411-15.05-2.901-18.26-1.824-7.373 2.472-13.9 4.929-18.41 11.7-2.348 3.522-4.386 7.523-5.548 11.59-0.428 1.496-0.541 3.077-0.987 4.563-0.175 0.584-0.172 0.515-0.247 1.109-0.032 0.258-0.479 0.857-0.246 0.74 1.536-0.768 2.5-2.457 4.069-3.329 0.228-0.127 1.22-0.876 1.48-0.617 0.154 0.155-1.564 2.914-1.727 3.206-1.672 3.011-3.528 6.171-4.809 9.372-2.547 6.368-2.125 8.145-2.594 14.6-0.713 9.796-0.222 13.62 0 13.39 1.047-1.047 3.668-3.486 4.567-4.686 1.767-2.355 3.743-4.679 5.673-6.905 3.114-3.593 6.819-6.562 9.618-10.48 5.03-7.043 9.308-14.63 13.93-21.95 3.1-4.909 12.99-14.49 13.49-20.48z" fill="#009244"/>
    <path d="m243.7 274.9c-0.708-0.05-0.444-1.36-0.796-1.977-1.14-1.995-2.526-3.935-4.069-5.672-1.422-1.599-4.237-2.135-6.166-2.836-2.373-0.863-2.018-6.861-4.403-7.656-10.1-3.366-20.25 7.555-25.19 15.79-2.08 3.466-4.609 6.777-5.549 10.85-0.801 3.472-1.179 7.039-2.096 10.48-0.802 3.006-2.609 5.374-4.193 8.015-2.806 4.676-6.184 9.414-9.741 13.56-1.71 1.995-7.925 9.248-7.399 9.248 0.913 0 2.913-2.016 3.699-2.466 2.876-1.643 5.933-3.307 9.002-4.562 7.038-2.88 14.86-3.017 21.95-5.549 3.087-1.103 7.295-2.316 9.248-5.179 2.236-3.278 0.149-5.894-2.219-8.262-1.519-1.519-3.286-2.888-1.48-5.056 1.088-1.305 3.914 0.179 5.056 0.863 3.261 1.957 3.956 6.676 8.138 3.33 2.314-1.851 4.721-4.08 6.536-6.412 0.486-0.626 1.484-2.202 1.233-3.083-0.308-1.078-1.538-1.576-2.22-2.343-1.878-2.113-3.303-4.672-1.973-7.522 1.255-2.688 4.528 1.396 7.152 0.74 0.733-0.183 1.04-1.38 1.603-1.85 1.657-1.381 3.104-1.603 5.179-1.603" fill="#006837"/>
    <path d="m327.5 296.7c0.26-0.068 0.416-0.782 0.763-0.869 1.398-0.35 3.734 0.327 5.179 0.616 0.879 0.176 1.898 0.514 2.713 0.864 0.356 0.152 0.986 0.616 0.986 0.616s-0.508-0.878-0.863-1.233c-0.872-0.872-1.561-1.368-2.219-2.466-1.665-2.774-1.87-5.813-4.44-8.015-3.905-3.348-7.634-7.987-12.21-10.48-3.542-1.931-7.546-3.287-11.47-4.192-3.798-0.877-9.131-1.673-12.58 0.74-2.121 1.485-2.131 2.6-2.959 4.809-0.188 0.502-1.242 0.977-0.863 1.356 0.383 0.384 1.705 0.466 2.219 0.74 2.578 1.375 5.452 2.426 7.855 4.09 2.49 1.724 4.093 4.831 5.586 7.378 1.968 3.357 2.68 7.215 4.563 10.6 2.232 4.018 5.35 7.366 8.138 10.98 1.803 2.333 3.197 4.923 5.302 7.029 2.28 2.279 4.386 4.889 6.906 6.905 2.654 2.123 5.952 3.486 8.385 5.919 1.633 1.633 3.285 3.21 5.179 4.562 0.837 0.599 2.205 1.131 2.836 1.973 0.634 0.845 2.6 3.453 3.823 3.453 0.452 0-0.038-0.906 0-1.357 0.063-0.762 0.123-1.455 0.123-2.219 0-3.933-0.449-8.028-0.863-11.96-1.028-9.766-8.853-15.99-14.92-22.81-2.221-2.499-4.159-4.469-7.398-5.549-0.544-0.181-0.97-0.863-1.357-0.863" fill="#006837"/>
    <path d="m281.3 274c-0.43-0.638 1.535-0.261 2.301-0.185 1.939 0.194 3.667 0.546 5.549 1.11 4.688 1.407 10.51 1.989 14.43 5.302 2.97 2.513 6.245 4.824 8.632 7.892 5.556 7.143 8.215 15.94 12.21 23.92 1.643 3.285 4.091 6.441 6.289 9.372 3.686 4.914 9.431 8.232 13.19 13.07 1.091 1.401 2.633 2.673 4.07 3.699 0.138 0.099 2.428 2.054 2.343 2.096-0.85 0.425-3.033-0.721-3.7-1.11-2.853-1.664-4.764-2.925-8.015-3.699-2.113-0.503-4.116-1.43-6.289-1.726-3.615-0.493-7.419-0.485-10.97-1.233-1.316-0.277-2.456-0.795-3.823-0.863-6.008-0.301-14.57 1.329-18.99-4.07-2.578-3.152-3.09-7.378-1.603-11.1 0.337-0.843 3.664-4.272 1.603-5.303-0.487-0.244-1.001 0.594-1.233 0.863-1.186 1.385-2.424 2.774-3.452 4.316-2.296 3.444-3.588 3.528-7.769 3.206-2.908-0.223-4.46-2.457-6.412-4.192-1.947-1.731-3.382-2.278-3.576-5.179-0.118-1.774 1.093-5.399-0.246-6.906-3.176-3.572-8.883-3.427-12.08-7.398-1.318-1.636-0.594-3.925-0.37-5.796 0.893-7.442 5.562-9.551 11.47-12.7 2.006-1.069 4.141-1.75 6.289-2.466 1.05-0.35 3.083-1.233 3.083-1.233s-0.358 0.391-0.494 0.617" fill="#009244"/>
    <path d="m254.6 220.5c-0.078-0.014 7e-3 -0.992-0.018-1.113-0.084-0.421-0.42-0.72-0.74-0.987-1.706-1.421-4.239-2.819-6.535-2.466-3.781 0.582-7.042 3.908-9.865 6.166-2.274 1.819-4.614 3.431-6.535 5.672-3.945 4.602-5.579 10.87-7.275 16.52-0.605 2.014-1.48 4.421-1.48 6.535 0 0.148 0.142-0.265 0.247-0.37 0.302-0.303 0.85-1.006 1.233-1.356 0.219-0.202 5.45-3.726 4.562-1.357-1.323 3.528-4.125 6.523-5.795 9.865-1.212 2.423-1.11 5.276-1.11 7.892 0 4.494 0.298 8.734 0.616 13.19 0.165 2.305 0.116 4.641 0.494 6.905 0.06 0.361-0.022 1.458 0.246 1.727 0.489 0.488 1.423-1.257 1.48-1.357 1.455-2.547 2.876-4.609 4.809-6.905 2.736-3.249 4.83-6.877 7.398-10.24 4.916-6.428 9.449-12.46 13.32-19.61 3.624-6.69 8.374-16.95 6.782-24.91-0.377-1.886-1.726-3.348-1.726-5.302" fill="#006837"/>
    <path d="m264.8 230.2c-9e-3 0.23 0.409-0.417 0.615-0.314 0.611 0.306 1.079 1.033 1.726 1.357 1.072 0.536 2.282 0.462 3.329 0.986 4.723 2.361 8.974 4.204 10.36 9.742 0.358 1.429-1.816 2.801-2.466 3.822-2.19 3.442-4.121 6.711-7.029 9.618-0.766 0.767-1.198 1.868-2.096 2.467-0.657 0.437-2.086-1.47-2.343-1.727-0.99-0.99-5.656-6.058-7.152-4.562-0.615 0.615 1.505 3.695 1.727 4.316 0.935 2.62 3.107 7.3 1.233 10.11-0.77 1.154-5 1.513-6.289 1.973-6.575 2.348-13 5.153-19.36 8.015-4.015 1.807-6.593 4.105-9.741 7.029-1.214 1.126-2.029 2.645-3.083 3.699-0.314 0.314-1.11 0.74-1.11 0.74s0.459-0.547 0.617-0.863c0.419-0.838 1.07-1.459 1.603-2.22 1.336-1.908 2.72-3.815 3.946-5.795 3.365-5.436 8.243-10.57 10.48-16.65 2.724-7.394-0.074-14.7 1.11-22.2 1.782-11.28 11.54-20.55 21.7-24.78 7.009-2.92 14.9 1.173 17.39 8.015 0.856 2.354 1.251 4.633 1.85 7.029 0.219 0.876 0.319 1.721 0.493 2.589 0.081 0.405 0.352 1.577 0.123 1.233-1.393-2.09-3.958-1.729-6.042-2.219-2.773-0.653-4.915-2.221-7.892-1.973-0.49 0.041-4.562 0.297-4.562 0.863" fill="#009244"/>
   </g>
  </g>
  <g transform="matrix(1.774 0 0 1.58 -2472 -395.8)" stroke-linecap="square" stroke-miterlimit="1.5">
   <g transform="matrix(.5637 0 0 .5637 694.8 145.6)">
    <path d="m1748 595c2.9-17.45 10.74-38.69 23.31-61.88 26.46-48.85 75.07-112.1 98.88-173.4 6.88-17.62 12.61-38.16 10.32-56.68-1.4-11.39-5.86-22.23-18.69-27.24-21-7.562-31.91-30.75-24.34-51.74 7.56-21 30.74-31.9 51.74-24.34 37.6 12.41 58.54 37.94 69.61 68.01 13.55 36.75 8.28 83.5-4.54 122.3-5.76 17.42-13.23 35.03-21.55 52.6-18.34 38.73-41.43 76.96-59.82 110.7-9.77 17.93-18.56 33.75-22.38 46.9 22.69-2.025 38.99-3.256 51.9-3.792 14.8-0.614 24.23-0.067 34.49-1.731 13.83-2.245 28.78-6.394 58.43-16.45 9.79-3.177 37.62-15.81 55.1-41.61 12.3-18.16 20.57-41.3 15.04-71.33-1.44-4.709 1.21-9.703 5.92-11.14s9.71 1.213 11.15 5.922c15.75 36.07 11.37 67.64 1.1 93.99-10.29 26.37-28.38 46.4-43.59 59.51 17.93-1.726 34.77-2.321 45.54-0.901 19.84 2.616 32.42 11.76 39.32 18.99 11.38 11.92 18.52 24.91 19.02 63.23 0.66 52-16.85 95.2-187.1 112.5-32.25 3.285-96.52-1.278-124.4-10.76-16.42-5.586-32.63-14.41-46.57-28.01-30.13-5.652-73.58-22.36-93.82-47.24-19.04-23.4-26.5-51.25-9.61-82.96 13.24-24.84 27.83-35.36 44.09-40.22 6.46-1.928 13.48-3.07 21.41-3.205z" fill="#243998"/>
    <clipPath>
     <path d="m1748 595c2.9-17.45 10.74-38.69 23.31-61.88 26.46-48.85 75.07-112.1 98.88-173.4 6.88-17.62 12.61-38.16 10.32-56.68-1.4-11.39-5.86-22.23-18.69-27.24-21-7.562-31.91-30.75-24.34-51.74 7.56-21 30.74-31.9 51.74-24.34 37.6 12.41 58.54 37.94 69.61 68.01 13.55 36.75 8.28 83.5-4.54 122.3-5.76 17.42-13.23 35.03-21.55 52.6-18.34 38.73-41.43 76.96-59.82 110.7-9.77 17.93-18.56 33.75-22.38 46.9 22.69-2.025 38.99-3.256 51.9-3.792 14.8-0.614 24.23-0.067 34.49-1.731 13.83-2.245 28.78-6.394 58.43-16.45 9.79-3.177 37.62-15.81 55.1-41.61 12.3-18.16 20.57-41.3 15.04-71.33-1.44-4.709 1.21-9.703 5.92-11.14s9.71 1.213 11.15 5.922c15.75 36.07 11.37 67.64 1.1 93.99-10.29 26.37-28.38 46.4-43.59 59.51 17.93-1.726 34.77-2.321 45.54-0.901 19.84 2.616 32.42 11.76 39.32 18.99 11.38 11.92 18.52 24.91 19.02 63.23 0.66 52-16.85 95.2-187.1 112.5-32.25 3.285-96.52-1.278-124.4-10.76-16.42-5.586-32.63-14.41-46.57-28.01-30.13-5.652-73.58-22.36-93.82-47.24-19.04-23.4-26.5-51.25-9.61-82.96 13.24-24.84 27.83-35.36 44.09-40.22 6.46-1.928 13.48-3.07 21.41-3.205z"/>
    </clipPath>
    <g clip-path="url(#_clip2-7)">
     <g transform="rotate(-12.34,1774,701.7)">
      <path d="m1788 549.7c-13.59 22.15-19.05 49.77-24.81 77.45-2.16 10.36-4.45 20.67-5.93 31.03-2.18 15.32-4.06 30.38-2.73 45.05 1.21 13.35 2.19 26.27 7.42 38.14 2.27 5.161 4.09 10.19 6.43 15.43 7.57 16.93 6.46 30.92 19.76 47.43 4.55 1.902 6.69 7.134 4.79 11.68s-7.13 6.689-11.68 4.787c-19.42 2.526-30.43 0.214-47.67-3.358-7.88-1.633-13.14-4.61-19.89-8.574-30.73-18.03-44.82-53.15-54.94-87.91-6.78-23.32-8.07-48.71-6.12-74.14 1.22-15.89 3.88-31.99 9.06-47.24 13.22-38.95 36.08-73.6 63.03-100.1 13.89-17.46 39.35-20.36 56.81-6.47 17.47 13.89 20.37 39.35 6.47 56.82z" fill="#27296c"/>
     </g>
     <path d="m1919 550c156.7 24.47 240.5 5.817 150.8-125.3" fill="none" stroke="#27296c" stroke-linecap="round" stroke-linejoin="round" stroke-width="107.9px"/>
     <path d="m2097 392.7c6.1 3.594 10.93 6.813 20.81 15.63 4.26 3.807 6.88 7.36 10.89 12.68 2.2 2.917 3.79 5.794 5.36 9.38 2.04 4.64 3.18 9.859 3.93 15.27 4.06 29.09-0.86 63.81-17.15 96.97-12.63 22.48-22.36 37.18-32.16 46.62-12.58 12.12-21.83 16.4-29.84 18.97-8.15 2.61-13.31 2.385-17.35 9.104-0.04 0.148-0.2 0.232-0.34 0.189-0.15-0.044-0.24-0.198-0.19-0.346 0.69-14.55 13.34-12.48 26.53-42.73 4.65-10.66 9.18-24.87 13.4-46.49 4.17-18.06 1.94-35.19 0.53-51.3-1.08-12.33-4.3-23.67-4.53-34.08-0.19-8.425 2.65-14.08 3.77-20.83 2.02-12.13 4.7-17.1 5.39-23.56-1.51-3.022-0.28-6.702 2.74-8.212 3.02-1.511 6.7-0.285 8.21 2.737z" fill="#233997"/>
     <path d="m1945 235.8c28.99 31.18 39.8 67.19 39.47 102-0.38 41.19-17.26 79.47-30.31 105.5l-81.32 132.4c-6.85 19.41-8.83 33.18-5.13 43.53 4.34 12.14 16.48 17.83 32.4 23.11 17.35 6.171 35.24 9.847 55.06 10.79 17.42 0.825 36.17 0.123 57.54-4.548 19.45-3.868 34.59-7.695 46.43-11.7 13.99-4.732 22.92-9.431 27.91-14.63 0.09-0.122 0.27-0.144 0.39-0.05s0.14 0.269 0.05 0.39c-3.94 6.402-11.97 13.25-25.24 21.07-11.1 6.55-25.65 13.46-44.52 21.36-22.59 8.959-42.95 13.9-62.28 15.21-23.05 1.571-44.17-2.294-64.81-8.08-27.39-8.315-45.89-21.07-53.64-41.65-5.82-15.45-5.54-36.45 4.5-65.7 1.61-4.701 7.95-16.21 16.99-30.81 20.64-33.35 55.81-85.66 66.34-105.9 14.41-26.44 31-67.57 30.55-111-0.25-24.2-4.39-49.24-20.04-73.72-2.08-2.664-1.6-6.513 1.06-8.591 2.67-2.078 6.52-1.603 8.6 1.061z" fill="#304abe"/>
     <path d="m1834 396c1.03-4.34 2.38-13.95 8.8-25.48 10.47-18.79 31.23-38.51 35.62-44.3 5.1-5.788 10.1-18.71 17.74-29.86 9.93-14.5 21.64-23.98 25.17-31.52 0.01-0.153 0.15-0.267 0.3-0.255 0.15 0.013 0.27 0.148 0.25 0.301 2.38 8.539 5.21 24.6 1.52 42.97-3.33 16.61-13.29 31.34-18.96 39.18-4.75 5.628-21.49 29.21-38.4 42.97-9.61 7.822-18.47 10.31-21.86 12.78-1.87 2.811-5.68 3.572-8.49 1.698s-3.57-5.678-1.69-8.488z" fill="#27296c"/>
     <path d="m1795 710.2c0.83-2.315 0.19-5-1.79-6.686-2.58-2.188-6.44-1.875-8.63 0.7-0.94 0.566-1.68 6.735-0.41 16.64 1.8 13.98 6.66 35.15 8.05 40.48 2.76 7.723 7.57 21.11 18.43 35.83 7.35 9.979 18.16 19.32 30.88 27.52 20.68 13.33 47.73 22.3 80.29 22.32 34.74-1.075 72.71-7.437 108.6-20.49 35.4-12.87 68.47-31.04 94.51-54.13 10-9.474 18-22.92 22.64-38.69 6.05-20.55 7.45-43.44 5.19-60.91 0-0.153-0.13-0.278-0.28-0.278s-0.28 0.125-0.28 0.278c-1.83 13.98-7.06 30.7-14.76 46.29-7.01 14.2-16.25 26.65-27.56 33.24-26.22 16.49-58.01 27.07-90.85 33.73-32.3 6.549-65.4 8.254-95.23 5.192-16.03-1.235-29.21-6.589-40.64-12.42-10.57-5.399-19.12-12.18-26.86-18.04-13.01-9.861-23.64-16.7-28.42-21.73-4.35-3.721-22.83-20.99-30.2-29.45-0.46-0.53-1.14-0.963-1.63-1.31 0.43-0.903 0.47-1.432-0.51-0.782-0.28 0.184 0.02 0.442 0.51 0.782l-0.32 0.648z" fill="#27296c"/>
     <path d="m1736 555.2c-2.97 7.215-5.37 14.65-11.05 26.8-3.35 7.178-5.16 14.42-9.51 22.65-1.91 3.619-4 7.211-6.3 10.86-4.59 7.287-9.57 14.82-12.72 23.86-5.2 14.92-8.51 32.35-3.3 54 4.2 19.1 10.1 33.81 16.75 46.13 19.54 36.25 43.09 50.38 47.28 64.89 0.07 0.137 0.01 0.304-0.13 0.373-0.13 0.069-0.3 0.013-0.37-0.125-9.66-12.8-40.15-16-71.41-46.6-12.32-12.05-22.98-28.62-33.54-50.24-18.76-41.32-16.3-76.83-4.35-104.9 5.89-13.87 13.67-26.82 24.18-35.39 9.12-7.428 17.81-11.56 27.29-14.74 13.18-4.417 21.38-4.999 29.24-6.848 2.57-2.191 6.44-1.882 8.63 0.69 2.19 2.571 1.88 6.437-0.69 8.628z" fill="#233997"/>
    </g>
   </g>
   <g transform="rotate(-20.13,1662,371.8)">
    <g transform="matrix(.41 .08984 -.09655 .4406 1012 54.94)">
     <path d="m1628 466.6c-0.39 1.475-4.26 8.606-5.97 10.24-1.15 1.094-6.61 5.521-7.6 5.975-5.16 2.357-10.99 2.825-16.56 2.041-3.05-0.429-6.04-1.226-8.92-2.308-2.13-0.801-4.2-1.76-6.2-2.859-1.52-0.84-3-1.763-4.42-2.762-1.16-0.808-2.27-1.667-3.35-2.575-0.9-0.761-1.77-1.556-2.6-2.386-4.46-4.42-8.06-9.919-9.48-16.1-0.29-1.262-0.49-2.546-0.6-3.837-0.1-1.265-0.11-2.538-0.04-3.805 0.05-0.924 0.15-1.845 0.3-2.76 1.06-6.821 4.45-13.09 8.71-18.44 0.79-0.995 1.62-1.963 2.47-2.904 1.11-1.218 2.27-2.391 3.47-3.52 1.53-1.44 3.12-2.809 4.78-4.104 2.11-1.655 4.32-3.191 6.6-4.597 2.99-1.835 6.11-3.455 9.37-4.759 1.23-0.496 2.49-0.945 3.77-1.316 1.02-0.297 2.06-0.549 3.11-0.754 5.72-1.118 11.88-0.862 17.23 1.592 1.11 0.506 2.16 1.107 3.17 1.786 1.17 0.788 2.29 1.661 3.29 2.651 0.53 0.519 1.03 1.074 1.44 1.689 0.21 0.316 3.58-3.035 3.94-3.393 4.22-4.224 13.79-5.772 17.82-0.405 9.71 12.95-12.54 17.06-10.94 21.87 2.89 8.653 18.16 19.43 25.54 23.12 2.88 1.441 19.97 8.692 19.25 11.55-1.48 5.927-21.61 12.26-29.4 10.7-7.38-1.476-14.5-5.72-21.46-8.506-0.72-0.285-5.11-1.738-6.71-1.155z" fill="#233997"/>
     <clipPath>
      <path d="m1628 466.6c-0.39 1.475-4.26 8.606-5.97 10.24-1.15 1.094-6.61 5.521-7.6 5.975-5.16 2.357-10.99 2.825-16.56 2.041-3.05-0.429-6.04-1.226-8.92-2.308-2.13-0.801-4.2-1.76-6.2-2.859-1.52-0.84-3-1.763-4.42-2.762-1.16-0.808-2.27-1.667-3.35-2.575-0.9-0.761-1.77-1.556-2.6-2.386-4.46-4.42-8.06-9.919-9.48-16.1-0.29-1.262-0.49-2.546-0.6-3.837-0.1-1.265-0.11-2.538-0.04-3.805 0.05-0.924 0.15-1.845 0.3-2.76 1.06-6.821 4.45-13.09 8.71-18.44 0.79-0.995 1.62-1.963 2.47-2.904 1.11-1.218 2.27-2.391 3.47-3.52 1.53-1.44 3.12-2.809 4.78-4.104 2.11-1.655 4.32-3.191 6.6-4.597 2.99-1.835 6.11-3.455 9.37-4.759 1.23-0.496 2.49-0.945 3.77-1.316 1.02-0.297 2.06-0.549 3.11-0.754 5.72-1.118 11.88-0.862 17.23 1.592 1.11 0.506 2.16 1.107 3.17 1.786 1.17 0.788 2.29 1.661 3.29 2.651 0.53 0.519 1.03 1.074 1.44 1.689 0.21 0.316 3.58-3.035 3.94-3.393 4.22-4.224 13.79-5.772 17.82-0.405 9.71 12.95-12.54 17.06-10.94 21.87 2.89 8.653 18.16 19.43 25.54 23.12 2.88 1.441 19.97 8.692 19.25 11.55-1.48 5.927-21.61 12.26-29.4 10.7-7.38-1.476-14.5-5.72-21.46-8.506-0.72-0.285-5.11-1.738-6.71-1.155z"/>
     </clipPath>
     <g clip-path="url(#_clip3-4)">
      <g transform="matrix(1.312 -.2674 .2874 1.221 -691.2 353.6)">
       <path d="m1704 423.4c0-4.806-17.04-19.41-19.63-16.39-1.62 1.888-1.93 5.972-3.65 7.694-0.89 0.885-13.35 7.483-14.5 8.138-7.51 4.307-10.29 8.628-9.6 17.72 0.76 9.988 12.06 18.47 12.95 18.25 5.41-1.353 11.24-13.73 13.57-19.3 1.62-3.905 6.21 0.241 9.44-2.801 4.37-4.104 11.42-6.237 11.42-13.31z" fill="#282a6f"/>
      </g>
     </g>
    </g>
    <g transform="matrix(.5637 0 0 .5637 694.8 148.7)">
     <path d="m1698 454.5c19.56 16.28 38.46 27.08 55.46 32.05 15.15 4.433 28.56 4.232 38.99-1.606 4.65-2.608 10.55-0.945 13.16 3.712 2.61 4.656 0.94 10.56-3.71 13.16-11.69 6.55-26.02 8.681-42.17 5.993-21.92-3.646-47.59-16.38-74.1-38.45-4.11-3.415-4.66-9.518-1.25-13.62s9.52-4.661 13.62-1.246z" fill="#233997"/>
    </g>
   </g>
   <g transform="matrix(-.511 -.8596 -.8596 .511 2991 1643)">
    <g transform="matrix(.41 .08984 -.09655 .4406 1012 54.94)">
     <path d="m1628 466.6c-0.39 1.475-4.26 8.606-5.97 10.24-1.15 1.094-6.61 5.521-7.6 5.975-5.16 2.357-10.99 2.825-16.56 2.041-3.05-0.429-6.04-1.226-8.92-2.308-2.13-0.801-4.2-1.76-6.2-2.859-1.52-0.84-3-1.763-4.42-2.762-1.16-0.808-2.27-1.667-3.35-2.575-0.9-0.761-1.77-1.556-2.6-2.386-4.46-4.42-8.06-9.919-9.48-16.1-0.29-1.262-0.49-2.546-0.6-3.837-0.1-1.265-0.11-2.538-0.04-3.805 0.05-0.924 0.15-1.845 0.3-2.76 1.06-6.821 4.45-13.09 8.71-18.44 0.79-0.995 1.62-1.963 2.47-2.904 1.11-1.218 2.27-2.391 3.47-3.52 1.53-1.44 3.12-2.809 4.78-4.104 2.11-1.655 4.32-3.191 6.6-4.597 2.99-1.835 6.11-3.455 9.37-4.759 1.23-0.496 2.49-0.945 3.77-1.316 1.02-0.297 2.06-0.549 3.11-0.754 5.72-1.118 11.88-0.862 17.23 1.592 1.11 0.506 2.16 1.107 3.17 1.786 1.17 0.788 2.29 1.661 3.29 2.651 0.53 0.519 1.03 1.074 1.44 1.689 0.21 0.316 3.58-3.035 3.94-3.393 4.22-4.224 13.79-5.772 17.82-0.405 9.71 12.95-12.54 17.06-10.94 21.87 2.89 8.653 18.16 19.43 25.54 23.12 2.88 1.441 19.97 8.692 19.25 11.55-1.48 5.927-21.61 12.26-29.4 10.7-7.38-1.476-14.5-5.72-21.46-8.506-0.72-0.285-5.11-1.738-6.71-1.155z" fill="#233997"/>
     <clipPath>
      <path d="m1628 466.6c-0.39 1.475-4.26 8.606-5.97 10.24-1.15 1.094-6.61 5.521-7.6 5.975-5.16 2.357-10.99 2.825-16.56 2.041-3.05-0.429-6.04-1.226-8.92-2.308-2.13-0.801-4.2-1.76-6.2-2.859-1.52-0.84-3-1.763-4.42-2.762-1.16-0.808-2.27-1.667-3.35-2.575-0.9-0.761-1.77-1.556-2.6-2.386-4.46-4.42-8.06-9.919-9.48-16.1-0.29-1.262-0.49-2.546-0.6-3.837-0.1-1.265-0.11-2.538-0.04-3.805 0.05-0.924 0.15-1.845 0.3-2.76 1.06-6.821 4.45-13.09 8.71-18.44 0.79-0.995 1.62-1.963 2.47-2.904 1.11-1.218 2.27-2.391 3.47-3.52 1.53-1.44 3.12-2.809 4.78-4.104 2.11-1.655 4.32-3.191 6.6-4.597 2.99-1.835 6.11-3.455 9.37-4.759 1.23-0.496 2.49-0.945 3.77-1.316 1.02-0.297 2.06-0.549 3.11-0.754 5.72-1.118 11.88-0.862 17.23 1.592 1.11 0.506 2.16 1.107 3.17 1.786 1.17 0.788 2.29 1.661 3.29 2.651 0.53 0.519 1.03 1.074 1.44 1.689 0.21 0.316 3.58-3.035 3.94-3.393 4.22-4.224 13.79-5.772 17.82-0.405 9.71 12.95-12.54 17.06-10.94 21.87 2.89 8.653 18.16 19.43 25.54 23.12 2.88 1.441 19.97 8.692 19.25 11.55-1.48 5.927-21.61 12.26-29.4 10.7-7.38-1.476-14.5-5.72-21.46-8.506-0.72-0.285-5.11-1.738-6.71-1.155z"/>
     </clipPath>
     <g clip-path="url(#_clip4-0)">
      <g transform="matrix(1.312 -.2674 .2874 1.221 -691.2 353.6)">
       <path d="m1704 423.4c0-4.806-17.04-19.41-19.63-16.39-1.62 1.888-1.93 5.972-3.65 7.694-0.89 0.885-13.35 7.483-14.5 8.138-7.51 4.307-10.29 8.628-9.6 17.72 0.76 9.988 12.06 18.47 12.95 18.25 5.41-1.353 11.24-13.73 13.57-19.3 1.62-3.905 6.21 0.241 9.44-2.801 4.37-4.104 11.42-6.237 11.42-13.31z" fill="#282a6f"/>
      </g>
     </g>
    </g>
    <g transform="matrix(.5637 0 0 .5637 694.8 148.7)">
     <path d="m1685 469.4c26.51 22.07 52.18 34.8 74.1 38.45 16.15 2.688 30.48 0.557 42.17-5.993 4.65-2.608 6.32-8.507 3.71-13.16-2.61-4.657-8.51-6.32-13.16-3.712-10.43 5.838-23.84 6.039-38.99 1.606-17-4.978-35.9-15.77-55.46-32.05-4.1-3.415-10.21-2.856-13.62 1.246s-2.86 10.2 1.25 13.62z" fill="#233997"/>
    </g>
   </g>
   <g transform="matrix(1.019 -.2727 .2727 1.019 -136.8 464.6)">
    <g transform="matrix(1.222,0,0,1.345,-474,109.1)">
     <path d="m1844 120.4c-4.31-1.464-10.22-3.075-17.36-2.908-6.12 0.143-11.53 2.118-16.93 5.2-2.24 1.284-4.76 2.28-6.69 4.054-6.75 6.188-11.54 16.25-11.99 25.12-0.7 13.63 0.21 19.97 1.48 23.52 0.42 1.177 3.01 4.065 4.07 4.772 1.41 0.941 5.38 1.127 6.84 0.862 5.7-1.038 7.85-2.594 15.81-5.18 17.2-5.589 23.68-10.87 33.76-23 4.65-5.602 17.22-6.162 15.93-10.09-2.48-7.523-12.06-17.97-24.92-22.34z" fill="#233997"/>
     <clipPath>
      <path d="m1844 120.4c-4.31-1.464-10.22-3.075-17.36-2.908-6.12 0.143-11.53 2.118-16.93 5.2-2.24 1.284-4.76 2.28-6.69 4.054-6.75 6.188-11.54 16.25-11.99 25.12-0.7 13.63 0.21 19.97 1.48 23.52 0.42 1.177 3.01 4.065 4.07 4.772 1.41 0.941 5.38 1.127 6.84 0.862 5.7-1.038 7.85-2.594 15.81-5.18 17.2-5.589 23.68-10.87 33.76-23 4.65-5.602 17.22-6.162 15.93-10.09-2.48-7.523-12.06-17.97-24.92-22.34z"/>
     </clipPath>
     <g clip-path="url(#_clip5-2)">
      <path d="m1842 110.4c-13.02-0.43-36.58 8.959-40.13 18.14-5.33 13.77-6.91 36.93-3.99 38.14 7.07 2.937 30.3-23.11 37.16-25.07 15.12-4.317 25.36-2.662 34.56 8.92 7.04 8.867 18.15-38.61-27.6-40.12z" fill="#304abe"/>
     </g>
    </g>
    <g transform="rotate(-8.567,2854,750.1)">
     <path d="m1779 190.4c2.06-0.612 4.08-1.436 5.9-2.231 3.35-1.468 5.08-2.448 7.18-5.477 0.79-1.139 4.33 1.252 3.51 2.43-2.52 3.64-4.95 5.193-8.98 6.957-2.27 0.99-4.82 1.991-7.38 2.677-3.96 1.453-10.5 6.418-12.46 9.679-0.6 1.01-1.91 1.338-2.92 0.732s-1.34-1.918-0.73-2.928c1.21-2.025 3.91-4.61 6.88-6.865-1.06-0.127-2.13-0.282-3.22-0.409-2.12-0.248-4.31-0.388-6.47 0.288-1.12 0.353-2.32-0.274-2.67-1.398s0.27-2.322 1.4-2.675c2.75-0.861 5.53-0.771 8.24-0.455 2.3 0.269 4.54 0.715 6.64 0.62 1.28-0.058 2.61-0.289 3.94-0.627 0.23-0.089 0.46-0.167 0.68-0.233 0.16-0.046 0.31-0.074 0.46-0.085z" fill="#e65050"/>
    </g>
    <g transform="matrix(.9656 0 0 .9605 -16.08 159.3)">
     <ellipse cx="1802" cy="131.7" rx="10.87" ry="10.93" fill="#fff"/>
     <clipPath>
      <ellipse cx="1802" cy="131.7" rx="10.87" ry="10.93"/>
     </clipPath>
     <g clip-path="url(#_clip6-8)">
      <g transform="matrix(2.513 .01588 -.003871 .6193 -2918 31.75)">
       <ellipse cx="1878" cy="113.2" rx="1.97" ry="8.037" fill="#282a6f"/>
       <clipPath>
        <ellipse cx="1878" cy="113.2" rx="1.97" ry="8.037"/>
       </clipPath>
       <g clip-path="url(#_clip7-0)">
        <g transform="matrix(-.1795 -.191 -.03838 .6002 2169 257.3)">
         <ellipse cx="1565" cy="253.6" rx="3.506" ry="4.341" fill="#fff"/>
        </g>
       </g>
      </g>
     </g>
     <ellipse cx="1802" cy="131.7" rx="10.87" ry="10.93" fill="none" stroke="#282a6f" stroke-linecap="round" stroke-linejoin="round" stroke-width="2.37px"/>
    </g>
    <g transform="matrix(.9656 0 0 .9605 34.45 171.7)">
     <ellipse cx="1802" cy="131.7" rx="10.87" ry="10.93" fill="#fff"/>
     <clipPath>
      <ellipse cx="1802" cy="131.7" rx="10.87" ry="10.93"/>
     </clipPath>
     <g clip-path="url(#_clip8-3)">
      <g transform="matrix(2.513 -.0002437 5.939e-5 .6191 -2919 62.06)">
       <ellipse cx="1878" cy="113.2" rx="1.97" ry="8.037" fill="#282a6f"/>
       <clipPath>
        <ellipse cx="1878" cy="113.2" rx="1.97" ry="8.037"/>
       </clipPath>
       <g clip-path="url(#_clip9-7)">
        <g transform="matrix(-.1787 -.1957 -.03922 .5992 2168 265.6)">
         <ellipse cx="1565" cy="253.6" rx="3.506" ry="4.341" fill="#fff"/>
        </g>
       </g>
      </g>
     </g>
     <ellipse cx="1802" cy="131.7" rx="10.87" ry="10.93" fill="none" stroke="#282a6f" stroke-linecap="round" stroke-linejoin="round" stroke-width="2.37px"/>
    </g>
    <g transform="matrix(-.4943 -.2708 -.2708 .4943 2666 673.1)">
     <path d="m1747 262.6c0.46 0.59 1.85 6.139 2.14 7.141 0.58 2.057-0.61 4.203-2.67 4.791-2.05 0.587-4.2-0.605-4.78-2.662-0.37-1.291-1.46-5.48-1.57-6.172-0.21-1.339 0.21-2.14 0.31-2.353 0.8-1.701 2.13-2.188 3.39-2.227 0.73-0.023 2.04 0.038 3.18 1.482z" fill="#282a6f"/>
    </g>
    <g transform="matrix(-.5632 .02229 .02229 .5632 2698 139.3)">
     <path d="m1747 262.6c0.46 0.59 1.85 6.139 2.14 7.141 0.58 2.057-0.61 4.203-2.67 4.791-2.05 0.587-4.2-0.605-4.78-2.662-0.37-1.291-1.46-5.48-1.57-6.172-0.21-1.339 0.21-2.14 0.31-2.353 0.8-1.701 2.13-2.188 3.39-2.227 0.73-0.023 2.04 0.038 3.18 1.482z" fill="#282a6f"/>
    </g>
   </g>
  </g>
  <g transform="translate(20,-232)" stroke-linejoin="round" stroke-miterlimit="2">
   <path d="m352 583.7c0.7384-2.611 2.057-5.051 3.893-7.133 3.519-3.995 8.584-6.283 13.91-6.283h394.5c5.36 0 10.46 2.295 14.02 6.306 1.905 2.146 3.263 4.672 4.001 7.379l-25.56 223.6-378-1.477z" fill="#a5aabb" stroke-width="3.063"/>
   <path d="m578.8 677.3h23.24l-3.911 46.92-42.57-0.4403v-23.24l-19.73-0.1227-3.507-46.36h46.48z" fill="#d7d9e1" stroke-width="1.291"/>
   <path d="m352 583.7-0.748-6.226c-0.63-5.263 1.024-10.55 4.538-14.51 3.519-3.966 8.569-6.235 13.87-6.235h394.8c5.34 0 10.42 2.277 13.98 6.261 3.554 3.984 5.237 9.293 4.631 14.6l-0.7284 6.384c-0.7382-2.706-2.097-5.233-4.001-7.379-3.554-4.01-8.658-6.305-14.02-6.305h-394.5c-5.326 0-10.39 2.287-13.91 6.281-1.836 2.082-3.155 4.522-3.893 7.133z" fill="#f7f7f7" stroke-width="3.149"/>
  </g>
 </g>
</svg>
